<?xml version="1.0" standalone="no"?>
<!DOCTYPE svg PUBLIC "-//W3C//DTD SVG 20010904//EN"
 "http://www.w3.org/TR/2001/REC-SVG-20010904/DTD/svg10.dtd">
<svg version="1.0" xmlns="http://www.w3.org/2000/svg"
 width="168.000000pt" height="48.000000pt" viewBox="0 0 168.000000 48.000000"
 preserveAspectRatio="xMidYMid meet">

<g transform="translate(0.000000,48.000000) scale(0.100000,-0.100000)"
fill="#000000" stroke="none">
<path d="M245 458 c-64 -35 -58 -127 11 -173 50 -32 114 -97 114 -115 0 -10
-7 -24 -16 -31 -20 -17 -88 -16 -109 1 -20 17 -19 47 2 59 26 14 7 26 -25 15
-55 -19 -62 -97 -12 -124 32 -17 113 -14 154 5 40 19 66 59 66 99 0 30 -44 82
-111 132 -55 40 -71 76 -45 102 22 22 48 6 61 -36 11 -37 39 -43 55 -13 32 60
-74 118 -145 79z"/>
<path d="M1155 458 c-64 -35 -58 -127 11 -173 50 -32 114 -97 114 -115 0 -10
-7 -24 -16 -31 -20 -17 -88 -16 -109 1 -20 17 -19 47 2 59 26 14 7 26 -25 15
-55 -19 -62 -97 -12 -124 32 -17 113 -14 154 5 40 19 66 59 66 99 0 30 -44 82
-111 132 -55 40 -71 76 -45 102 22 22 48 6 61 -36 11 -37 39 -43 55 -13 32 60
-74 118 -145 79z"/>
<path d="M1359 448 c-8 -15 -10 -63 -7 -153 5 -133 16 -178 49 -198 39 -24
112 31 92 68 -8 14 -11 12 -21 -10 -8 -17 -19 -25 -30 -23 -24 4 -28 81 -8
149 9 29 16 71 16 94 0 74 -63 125 -91 73z m60 -86 c0 -15 -4 -36 -9 -47 -6
-15 -9 -6 -9 33 -1 33 3 51 9 47 6 -3 10 -18 9 -33z"/>
<path d="M696 333 c-8 -160 -15 -197 -40 -201 -18 -4 -19 1 -13 81 5 73 3 87
-11 101 -10 8 -26 15 -37 16 -11 0 -38 2 -59 3 -35 2 -43 -2 -63 -32 -18 -26
-23 -48 -23 -93 0 -52 3 -63 29 -89 16 -16 34 -29 40 -29 13 0 51 49 52 69 0
9 7 2 15 -16 16 -37 46 -57 73 -48 15 5 22 -2 31 -30 16 -47 71 -78 96 -53 29
29 29 122 -1 200 -4 9 3 14 20 16 21 1 25 -2 25 -27 0 -66 72 -123 135 -107
37 9 75 50 75 81 0 33 -11 31 -35 -8 -24 -37 -58 -46 -86 -21 -27 24 -26 74 2
74 22 0 79 50 79 70 0 21 -49 60 -75 60 -24 0 -51 -21 -93 -74 -7 -9 -28 -16
-48 -16 l-35 0 2 84 c2 85 -7 116 -36 116 -10 0 -15 -34 -19 -127z m251 -28
c5 -16 -22 -55 -39 -55 -11 0 -10 27 2 51 13 23 28 25 37 4z m-369 -8 c21 -25
-35 -166 -60 -151 -15 9 -3 110 17 140 18 27 28 30 43 11z m189 -176 c3 -27 3
-58 -1 -68 -13 -33 -26 8 -26 82 1 80 17 71 27 -14z"/>
</g>
</svg>
