<?xml version="1.0" standalone="no"?>
<!DOCTYPE svg PUBLIC "-//W3C//DTD SVG 20010904//EN"
 "http://www.w3.org/TR/2001/REC-SVG-20010904/DTD/svg10.dtd">
<svg version="1.0" xmlns="http://www.w3.org/2000/svg"
 width="168.000000pt" height="48.000000pt" viewBox="0 0 168.000000 48.000000"
 preserveAspectRatio="xMidYMid meet">

<g transform="translate(0.000000,48.000000) scale(0.100000,-0.100000)"
fill="#000000" stroke="none">
<path d="M1091 1984 c-162 -43 -260 -129 -303 -266 -23 -77 -23 -140 2 -221
40 -129 156 -261 350 -397 273 -191 370 -302 370 -419 0 -59 -28 -99 -94 -134
-36 -20 -56 -22 -171 -22 -112 1 -138 4 -190 24 -33 14 -77 41 -97 61 -34 33
-38 43 -38 87 0 64 25 98 97 129 47 21 53 27 53 54 0 97 -186 71 -300 -42 -63
-63 -94 -136 -94 -223 1 -84 18 -128 73 -188 78 -84 213 -129 392 -129 374 1
659 232 636 515 -14 163 -105 279 -386 489 -189 142 -307 251 -334 310 -33 70
-16 154 39 193 34 23 96 35 137 25 80 -18 126 -93 135 -222 5 -74 7 -80 31
-90 40 -15 137 -5 169 18 63 47 82 164 41 254 -38 85 -159 174 -270 199 -62
15 -185 12 -248 -5z"/>
<path d="M4961 1984 c-162 -43 -260 -129 -303 -266 -23 -77 -23 -140 2 -221
40 -129 156 -261 350 -397 273 -191 370 -302 370 -419 0 -59 -28 -99 -94 -134
-36 -20 -56 -22 -171 -22 -112 1 -138 4 -190 24 -33 14 -77 41 -97 61 -34 33
-38 43 -38 87 0 64 25 98 97 129 47 21 53 27 53 54 0 97 -186 71 -300 -42 -63
-63 -94 -136 -94 -223 1 -84 18 -128 73 -188 78 -84 213 -129 392 -129 374 1
659 232 636 515 -14 163 -105 279 -386 489 -189 142 -307 251 -334 310 -33 70
-16 154 39 193 34 23 96 35 137 25 80 -18 126 -93 135 -222 5 -74 7 -80 31
-90 40 -15 137 -5 169 18 63 47 82 164 41 254 -38 85 -159 174 -270 199 -62
15 -185 12 -248 -5z"/>
<path d="M5800 1982 c-86 -43 -105 -148 -104 -577 1 -404 33 -721 86 -863 25
-66 88 -138 143 -163 62 -28 158 -25 223 7 58 29 136 109 163 169 35 75 13
174 -40 188 -17 4 -22 -1 -32 -36 -24 -90 -96 -177 -145 -177 -61 0 -92 85
-100 280 l-6 135 56 167 c85 251 115 468 85 610 -26 123 -115 234 -212 263
-64 19 -74 19 -117 -3z m184 -430 c-2 -104 -43 -337 -55 -307 -12 30 -11 380
1 411 l11 28 22 -22 c20 -20 22 -32 21 -110z"/>
<path d="M2947 1943 c-4 -3 -7 -40 -7 -81 0 -42 -11 -253 -25 -471 -14 -218
-29 -473 -34 -568 l-9 -172 -35 -48 c-57 -77 -108 -94 -134 -43 -18 34 -17
246 2 445 20 219 20 245 -8 286 -26 39 -134 99 -178 99 -25 0 -32 -6 -41 -31
l-10 -31 -32 31 c-75 73 -209 97 -324 57 -155 -53 -262 -280 -262 -556 0 -126
18 -217 58 -297 72 -142 226 -228 321 -179 70 37 122 121 178 288 l28 83 5
-85 c7 -107 24 -159 69 -211 48 -57 119 -89 196 -89 61 0 135 25 151 51 5 9
13 -23 20 -83 28 -218 152 -338 350 -338 69 0 78 2 103 28 15 15 39 54 52 87
22 56 24 73 24 255 0 178 -3 205 -28 310 -15 63 -42 146 -61 185 l-33 71 51
-4 c29 -2 68 2 92 10 l41 15 6 -91 c16 -229 95 -374 248 -450 186 -93 393 -61
545 85 78 76 118 150 119 224 0 61 -17 98 -53 114 -31 14 -35 9 -52 -53 -19
-71 -81 -158 -143 -199 -104 -71 -192 -70 -272 4 -50 46 -80 109 -94 200 -18
106 -17 109 27 109 98 0 240 61 309 132 178 184 47 438 -227 438 -163 0 -279
-88 -354 -267 -27 -64 -38 -78 -62 -86 -28 -8 -301 -14 -308 -6 -1 2 3 85 10
184 19 262 19 450 -1 504 -22 63 -61 110 -109 132 -41 19 -97 25 -109 12z
m1007 -632 c20 -22 24 -90 8 -132 -23 -58 -81 -106 -169 -140 -26 -10 -26 -10
-20 33 12 86 47 178 84 219 39 43 70 50 97 20z m-1550 -58 c44 -44 46 -67 15
-188 -54 -215 -145 -429 -195 -462 -58 -38 -83 11 -83 163 -2 241 70 456 167
505 39 20 63 15 96 -18z m770 -495 c37 -123 56 -238 63 -373 7 -162 -12 -228
-61 -209 -44 17 -62 176 -51 457 4 114 11 207 16 207 4 0 20 -37 33 -82z"/>
</g>
</svg>
