<?xml version="1.0" standalone="no"?>
<!DOCTYPE svg PUBLIC "-//W3C//DTD SVG 20010904//EN"
 "http://www.w3.org/TR/2001/REC-SVG-20010904/DTD/svg10.dtd">
<svg version="1.0" xmlns="http://www.w3.org/2000/svg"
 width="2000.000000pt" height="831.000000pt" viewBox="0 0 2000.000000 831.000000"
 preserveAspectRatio="xMidYMid meet">

<g transform="translate(0.000000,831.000000) scale(0.100000,-0.100000)"
fill="#000000" stroke="none">
<path d="M2300 4905 l0 -1536 738 4 c819 4 801 3 1023 77 535 177 934 637
1036 1192 24 131 23 400 -1 528 -120 629 -589 1104 -1225 1243 -91 19 -131 21
-833 24 l-738 4 0 -1536z m1488 807 c242 -73 433 -234 546 -458 200 -402 24
-885 -401 -1098 -151 -75 -176 -79 -575 -84 l-358 -4 0 837 0 837 358 -4 c332
-4 362 -6 430 -26z"/>
<path d="M8067 5635 c-300 -51 -586 -229 -759 -475 -91 -129 -169 -312 -199
-470 -15 -84 -15 -306 0 -390 30 -158 108 -341 199 -470 107 -153 291 -305
466 -385 449 -208 1006 -95 1374 278 l63 63 -113 110 c-127 122 -178 157 -270
180 -103 27 -188 16 -353 -47 -134 -50 -144 -53 -240 -53 -94 -1 -105 1 -167
32 -81 40 -147 103 -182 174 l-27 53 608 5 c527 5 614 8 655 22 71 24 129 61
177 113 64 70 84 123 89 237 4 83 0 110 -22 189 -104 362 -405 670 -776 793
-169 56 -349 70 -523 41z m297 -630 c32 -8 79 -27 104 -42 58 -34 149 -125
180 -181 l23 -42 -381 0 c-316 0 -387 -3 -417 -15 -19 -8 -37 -15 -40 -15 -2
0 13 32 33 70 57 110 173 204 281 229 60 14 154 12 217 -4z"/>
<path d="M10594 5635 c-190 -29 -369 -112 -486 -224 -88 -83 -183 -205 -175
-224 6 -15 223 -145 297 -177 44 -20 72 -25 140 -25 83 1 88 2 209 59 68 32
143 61 167 64 92 10 179 -37 230 -124 27 -46 54 -132 54 -175 l0 -26 -57 20
c-52 17 -76 19 -228 14 -254 -9 -443 -47 -604 -123 -263 -123 -385 -317 -385
-609 1 -142 17 -214 77 -330 53 -103 180 -234 282 -291 191 -106 439 -149 630
-109 97 20 237 92 311 158 l60 55 12 -56 c7 -31 21 -76 32 -99 l19 -43 281 0
281 0 -4 698 c-3 592 -6 712 -20 797 -28 164 -55 254 -109 365 -89 181 -233
302 -438 369 -147 48 -400 64 -576 36z m299 -1169 c40 -16 85 -67 93 -104 3
-15 9 -35 15 -44 11 -21 -21 -148 -53 -211 -46 -91 -173 -232 -263 -291 -49
-32 -77 -36 -50 -6 10 11 16 21 14 23 -14 10 -90 37 -119 41 -52 9 -156 73
-221 137 -70 70 -103 147 -97 226 10 119 124 177 237 119 34 -18 99 -83 106
-107 10 -31 21 -22 51 38 16 32 55 83 86 115 74 74 133 93 201 64z"/>
<path d="M6574 5626 c-124 -29 -247 -96 -307 -168 l-34 -41 -6 53 c-4 29 -17
74 -29 99 l-23 46 -277 3 -278 2 0 -1125 0 -1125 350 0 350 0 0 690 c0 767 -4
717 69 783 79 71 205 116 326 117 84 0 186 24 246 57 61 33 122 99 144 156 25
66 73 351 61 358 -21 12 -167 60 -244 80 -102 26 -268 33 -348 15z"/>
<path d="M13355 5629 c-157 -20 -313 -88 -389 -169 l-45 -48 -6 36 c-4 20 -16
66 -28 102 l-22 65 -282 3 -283 2 0 -1125 0 -1125 355 0 355 0 0 693 c0 670 1
693 20 724 43 71 189 139 330 152 86 9 128 0 158 -32 34 -36 71 -127 82 -202
5 -41 10 -332 10 -702 l0 -633 350 0 350 0 0 693 0 693 25 34 c64 86 218 152
362 154 68 1 86 -2 110 -20 39 -29 81 -116 93 -194 6 -39 10 -325 10 -712 l0
-648 356 0 355 0 -4 718 c-3 614 -6 729 -21 802 -37 193 -105 357 -192 467
-160 201 -373 293 -649 280 -235 -11 -523 -96 -670 -197 l-46 -31 -73 68 c-85
80 -172 127 -271 148 -76 16 -229 18 -340 4z"/>
<path d="M16715 5634 c-388 -63 -674 -380 -651 -724 9 -140 49 -244 134 -352
90 -115 237 -204 502 -304 215 -80 245 -100 245 -164 0 -50 -28 -88 -82 -112
-72 -32 -115 -20 -242 66 -119 81 -153 96 -221 96 -70 0 -139 -24 -303 -106
l-148 -75 36 -67 c137 -251 366 -446 610 -522 151 -46 367 -34 533 30 180 69
348 221 426 384 59 122 77 202 77 337 0 135 -13 203 -56 294 -79 167 -239 266
-583 361 -234 65 -252 76 -252 147 0 121 133 152 309 73 159 -73 266 -35 439
153 l83 91 -78 78 c-139 136 -308 242 -468 292 -69 22 -240 35 -310 24z"/>
</g>
</svg>
